<svg width="20" height="20" viewBox="0 0 20 20" fill="none" xmlns="http://www.w3.org/2000/svg">
<path d="M9.99935 1.66699C14.5993 1.66699 18.3327 5.40033 18.3327 10.0003C18.3327 14.6003 14.5993 18.3337 9.99935 18.3337C5.39935 18.3337 1.66602 14.6003 1.66602 10.0003C1.66602 5.40033 5.39935 1.66699 9.99935 1.66699ZM9.99935 16.667C13.6827 16.667 16.666 13.6837 16.666 10.0003C16.666 6.31699 13.6827 3.33366 9.99935 3.33366C6.31602 3.33366 3.33268 6.31699 3.33268 10.0003C3.33268 13.6837 6.31602 16.667 9.99935 16.667ZM10.8327 10.0003H13.3327L9.99935 13.3337L6.66602 10.0003H9.16602V6.66699H10.8327V10.0003Z" fill="#164E83"/>
</svg>
